<svg xmlns="http://www.w3.org/2000/svg" xmlns:xlink="http://www.w3.org/1999/xlink" viewBox="0,0,256,256" width="48px" height="48px" fill-rule="nonzero"><g fill="#091c5b" fill-rule="nonzero" stroke="none" stroke-width="1" stroke-linecap="butt" stroke-linejoin="miter" stroke-miterlimit="10" stroke-dasharray="" stroke-dashoffset="0" font-family="none" font-weight="none" font-size="none" text-anchor="none" style="mix-blend-mode: normal"><g transform="scale(10.66667,10.66667)"><path d="M17.47656,2.99023c-0.2942,0.00949 -0.56928,0.1481 -0.75195,0.37891l-4.21484,5.18555l-3.45313,-4.7832c-0.35,-0.484 -0.91081,-0.77148 -1.50781,-0.77148h-3.4707c-0.658,0 -1.0393,0.7463 -0.6543,1.2793l5.91016,8.18359l-5.60937,6.90625c-0.239,0.2756 -0.30898,0.65947 -0.1826,1.00167c0.12637,0.34221 0.42904,0.58846 0.7898,0.64258c0.36076,0.05412 0.72236,-0.09248 0.94359,-0.38253l5.27344,-6.48828l4.39453,6.08594c0.35,0.484 0.91081,0.77148 1.50781,0.77148h3.4707c0.658,0 1.0393,-0.7463 0.6543,-1.2793l-6.85156,-9.48828l4.55078,-5.60156c0.25245,-0.30234 0.30394,-0.72469 0.13151,-1.07882c-0.17243,-0.35413 -0.53666,-0.57407 -0.93034,-0.5618zM6.41016,5h1.06641l10.11133,14h-1.06445z"></path></g></g></svg>