<svg xmlns="http://www.w3.org/2000/svg" xmlns:xlink="http://www.w3.org/1999/xlink" viewBox="0,0,256,256" width="48px" height="48px" fill-rule="nonzero"><g fill="#091c5b" fill-rule="nonzero" stroke="none" stroke-width="1" stroke-linecap="butt" stroke-linejoin="miter" stroke-miterlimit="10" stroke-dasharray="" stroke-dashoffset="0" font-family="none" font-weight="none" font-size="none" text-anchor="none" style="mix-blend-mode: normal"><g transform="scale(10.66667,10.66667)"><path d="M8,3c-2.75,0 -5,2.25 -5,5v8c0,2.75 2.25,5 5,5h3.83203c0.10799,0.01785 0.21818,0.01785 0.32617,0h3.8418c2.75,0 5,-2.25 5,-5v-8c0,-2.75 -2.25,-5 -5,-5zM8,5h8c1.668,0 3,1.332 3,3v8c0,1.668 -1.332,3 -3,3h-3v-5h2c0.36064,0.0051 0.69608,-0.18438 0.87789,-0.49587c0.18181,-0.3115 0.18181,-0.69676 0,-1.00825c-0.18181,-0.3115 -0.51725,-0.50097 -0.87789,-0.49587h-2v-1c0,-0.56503 0.43497,-1 1,-1h1c0.36064,0.0051 0.69608,-0.18438 0.87789,-0.49587c0.18181,-0.3115 0.18181,-0.69676 0,-1.00825c-0.18181,-0.3115 -0.51725,-0.50097 -0.87789,-0.49587h-1c-1.64497,0 -3,1.35503 -3,3v1h-1c-0.36064,-0.0051 -0.69608,0.18438 -0.87789,0.49587c-0.18181,0.3115 -0.18181,0.69676 0,1.00825c0.18181,0.3115 0.51725,0.50097 0.87789,0.49587h1v5h-3c-1.668,0 -3,-1.332 -3,-3v-8c0,-1.668 1.332,-3 3,-3z"></path></g></g></svg>